<svg xmlns="http://www.w3.org/2000/svg" version="1.0" width="163" height="143" viewBox="0 0 500.000000 500.000000" preserveAspectRatio="xMidYMid meet">

<g transform="translate(0.000000,500.000000) scale(0.100000,-0.100000)" fill="#ffffff" stroke="none">
<path d="M2145 3688 c-45 -24 -45 -26 -45 -363 0 -274 2 -324 16 -343 l15 -22 365 0 364 0 19 31 c18 30 19 52 17 338 -2 318 -4 339 -46 361 -27 14 -678 13 -705 -2z m325 -160 c0 -72 -4 -118 -10 -118 -25 0 -50 -41 -50 -81 0 -32 6 -47 30 -71 30 -29 30 -31 30 -139 l0 -109 -154 0 c-131 0 -155 2 -160 16 -3 9 -6 74 -6 145 l0 129 64 0 64 0 4 -40 c3 -32 0 -41 -14 -46 -19 -6 -48 -53 -48 -77 0 -30 41 -67 73 -67 69 0 105 87 52 128 -24 19 -25 25 -25 128 0 107 0 108 31 140 25 26 30 38 25 59 -22 86 -131 84 -152 -2 -6 -24 17 -70 39 -79 8 -3 11 -21 9 -49 l-4 -45 -59 0 -59 0 0 134 c0 100 3 138 14 148 10 10 49 14 160 13 l146 0 0 -117z m358 99 c8 -7 12 -48 12 -143 l0 -134 -65 0 -65 0 0 43 c0 32 6 49 21 63 33 30 40 49 28 83 -19 55 -82 69 -124 26 -34 -33 -32 -70 4 -104 29 -27 29 -30 30 -130 1 -101 1 -103 -29 -133 -37 -36 -38 -71 -5 -103 34 -35 78 -33 104 4 28 39 27 75 -4 99 -19 15 -25 29 -25 61 l0 41 65 0 66 0 -3 -142 -3 -143 -157 -3 -158 -3 0 116 c0 103 2 115 18 115 17 0 52 68 52 101 0 22 -38 69 -56 69 -11 0 -14 23 -14 120 l0 121 148 -7 c81 -4 153 -11 160 -17z m-108 -113 c0 -15 -35 -28 -50 -19 -16 10 -12 33 7 44 20 11 43 -3 43 -25z m-395 1 c0 -14 -8 -21 -27 -23 -22 -3 -28 1 -28 16 0 25 10 33 35 30 12 -2 20 -10 20 -23z m203 -157 c18 -18 14 -56 -7 -68 -26 -14 -50 -3 -57 26 -11 42 34 72 64 42z m-200 -220 c3 -22 -1 -28 -16 -28 -25 0 -46 25 -38 46 10 27 51 13 54 -18z m390 4 c4 -28 -24 -40 -45 -19 -21 21 -9 49 19 45 15 -2 24 -11 26 -26z" fill="#ffffff"/>
<path d="M1877 2746 c-102 -38 -149 -112 -155 -246 -7 -141 31 -226 122 -277 45 -24 62 -28 136 -28 74 0 91 4 135 28 86 48 124 124 125 253 0 129 -40 213 -123 256 -53 27 -184 35 -240 14z m172 -101 c80 -41 95 -249 22 -319 -37 -35 -103 -44 -151 -19 -55 29 -75 74 -75 168 0 129 39 184 133 185 24 0 56 -7 71 -15z" fill="#ffffff"/>
<path d="M2435 2748 c-91 -32 -132 -139 -84 -218 27 -43 39 -53 114 -91 104 -54 126 -88 85 -129 -13 -13 -33 -20 -60 -20 -22 0 -66 9 -97 20 -32 11 -61 20 -65 20 -4 0 -8 -23 -8 -51 0 -47 2 -51 33 -63 82 -35 202 -31 258 7 54 37 73 71 73 131 0 72 -30 111 -126 161 -90 47 -108 62 -108 91 0 52 65 69 150 39 24 -8 44 -14 46 -13 4 6 34 81 34 88 0 13 -114 40 -166 39 -27 0 -62 -5 -79 -11z" fill="#ffffff"/>
<path d="M3503 2748 c-5 -7 -50 -128 -98 -268 -49 -140 -90 -261 -93 -267 -3 -10 13 -13 60 -13 l65 0 18 65 17 65 102 0 101 0 19 -65 18 -65 65 0 c48 0 64 3 60 13 -2 6 -41 118 -87 247 -117 335 -97 300 -173 300 -40 0 -68 -5 -74 -12z m137 -305 c0 -9 -20 -13 -65 -13 -39 0 -65 4 -65 10 0 6 14 58 32 116 l32 104 33 -102 c18 -57 33 -109 33 -115z" fill="#ffffff"/>
<path d="M1230 2475 l0 -275 60 0 59 0 3 101 c3 90 5 103 24 115 20 14 24 9 91 -98 l70 -113 66 -3 c37 -2 67 -1 67 2 0 3 -40 67 -88 143 -48 76 -91 143 -95 149 -6 10 96 150 171 237 14 16 11 17 -51 17 l-66 0 -79 -97 c-43 -54 -86 -109 -95 -123 -16 -24 -17 -20 -17 98 l0 122 -60 0 -60 0 0 -275z" fill="#ffffff"/>
<path d="M2780 2475 l0 -275 60 0 60 0 0 120 0 120 110 0 110 0 0 -120 0 -120 60 0 60 0 0 275 0 275 -60 0 -60 0 0 -105 0 -105 -110 0 -110 0 0 105 0 105 -60 0 -60 0 0 -275z" fill="#ffffff"/>
<path d="M1800 1810 l0 -180 90 0 90 0 0 30 c0 30 -1 30 -55 30 l-55 0 0 150 0 150 -35 0 -35 0 0 -180z" fill="#ffffff"/>
<path d="M2247 1818 c-21 -95 -37 -176 -37 -180 0 -5 13 -8 30 -8 25 0 30 4 36 36 6 34 8 35 48 32 37 -3 41 -6 46 -33 4 -25 10 -30 38 -33 17 -2 32 0 31 5 0 4 -17 85 -38 178 l-37 170 -40 3 -40 3 -37 -173z m97 -25 c5 -30 3 -33 -19 -33 -29 0 -30 7 -13 82 l11 53 7 -35 c4 -19 10 -50 14 -67z" fill="#ffffff"/>
<path d="M2660 1810 l0 -180 74 0 c54 0 79 4 90 15 20 20 30 76 22 118 -4 17 -6 41 -5 52 0 11 1 49 2 84 1 81 -10 91 -110 91 l-73 0 0 -180z m118 78 c-2 -36 -7 -44 -25 -46 -21 -3 -23 1 -23 42 0 43 2 46 26 46 23 0 25 -3 22 -42z m2 -153 c0 -41 -2 -45 -25 -45 -23 0 -25 4 -25 45 0 41 2 45 25 45 23 0 25 -4 25 -45z" fill="#ffffff"/>
<path d="M3095 1974 c-12 -13 -15 -33 -13 -93 l3 -76 58 -20 c57 -20 58 -21 55 -55 -3 -30 -7 -35 -28 -35 -20 0 -26 6 -28 28 -3 23 -8 27 -33 27 -28 0 -29 -2 -29 -43 0 -59 21 -77 88 -77 78 0 94 20 90 113 l-3 72 -57 20 c-57 19 -58 20 -58 58 0 36 2 38 28 35 21 -2 28 -9 30 -30 3 -24 8 -28 33 -28 28 0 29 2 29 43 0 60 -21 77 -93 77 -38 0 -61 -5 -72 -16z" fill="#ffffff"/>
<path d="M1248 1812 c-20 -2 -28 -9 -28 -23 0 -18 9 -19 231 -19 230 0 230 0 227 21 -3 22 -6 22 -203 23 -110 1 -212 0 -227 -2z" fill="#ffffff"/>
<path d="M3383 1804 c-12 -31 10 -34 233 -34 217 0 224 1 224 20 0 19 -7 20 -202 21 -112 0 -214 2 -226 3 -13 2 -26 -3 -29 -10z" fill="#ffffff"/>
</g>
</svg>